<svg width="39.5" height="40.5" viewBox="0 0 79 81" xmlns="http://www.w3.org/2000/svg"><title>OneSignal-Bell</title><g fill="#BBB" fill-rule="evenodd"><path d="M39.96 67.12H4.12s-3.2-.32-3.2-3.36 2.72-3.2 2.72-3.2 10.72-5.12 10.72-8.8c0-3.68-1.76-6.24-1.76-21.28 0-15.04 9.6-26.56 21.12-26.56 0 0 1.6-3.84 6.24-3.84 4.48 0 6.08 3.84 6.08 3.84 11.52 0 21.12 11.52 21.12 26.56s-1.6 17.6-1.6 21.28c0 3.68 10.72 8.8 10.72 8.8s2.72.16 2.72 3.2c0 2.88-3.36 3.36-3.36 3.36H39.96zM27 70.8h24s-1.655 10.08-11.917 10.08S27 70.8 27 70.8z"/></g></svg>